Coordinates
version=1
nRows=8
nColumns=40
inDegrees=yes

Units are S.I. units (second, meters, Newtons, ...)
If the header above contains a line with 'inDegrees', this indicates whether rotational values are in degrees (yes) or radians (no).

endheader
time	pelvis_tilt	pelvis_list	pelvis_rotation	pelvis_tx	pelvis_ty	pelvis_tz	hip_flexion_r	hip_adduction_r	hip_rotation_r	knee_angle_r	knee_angle_r_beta	ankle_angle_r	subtalar_angle_r	mtp_angle_r	hip_flexion_l	hip_adduction_l	hip_rotation_l	knee_angle_l	knee_angle_l_beta	ankle_angle_l	subtalar_angle_l	mtp_angle_l	lumbar_extension	lumbar_bending	lumbar_rotation	arm_flex_r	arm_add_r	arm_rot_r	elbow_flex_r	pro_sup_r	wrist_flex_r	wrist_dev_r	arm_flex_l	arm_add_l	arm_rot_l	elbow_flex_l	pro_sup_l	wrist_flex_l	wrist_dev_l
      3.54000000	    -10.44009013	     -5.54160591	     89.28481606	      0.21594020	      0.89154834	      0.51286023	     35.67119954	    -13.17255022	    -11.43988427	     12.45074507	      0.21730650	     -3.18305826	      4.49143482	      0.00000000	    -15.32861572	      7.66686565	    -18.77344913	     13.46888062	      0.23507631	     -0.09310310	     12.25344834	      0.00000000	      0.00000000	      0.00000000	      0.00000000	     36.19456644	    -14.79634565	     36.19456644	     79.57723281	     42.94308223	      0.00000000	      0.00000000	     36.19456644	    -14.79634565	     36.19456644	     79.57723281	     42.94308223	      0.00000000	      0.00000000
      3.54500000	    -10.15439627	     -5.37568171	     89.27203656	      0.21693951	      0.89164118	      0.50502245	     35.45569395	    -12.87480138	    -11.27833852	     13.19395642	      0.23027798	     -3.68955940	      4.02210706	      0.00000000	    -15.62935376	      7.18672398	    -18.92620861	     14.03254041	      0.24491403	     -1.12929310	     11.79610948	      0.00000000	      0.00000000	      0.00000000	      0.00000000	     36.19793958	    -14.79647402	     36.19793958	     79.57156016	     42.95014072	      0.00000000	      0.00000000	     36.19793958	    -14.79647402	     36.19793958	     79.57156016	     42.95014072	      0.00000000	      0.00000000
      3.55000000	     -9.55636995	     -5.16938929	     89.27296612	      0.21809095	      0.89205906	      0.49715374	     34.96911482	    -12.16992216	    -10.96413314	     13.60018305	      0.23736797	     -4.49841009	      2.84909040	      0.00000000	    -15.88751807	      6.34417829	    -19.15371099	     14.79090360	      0.25814997	     -1.96689836	     11.32593766	      0.00000000	      0.00000000	      0.00000000	      0.00000000	     36.22853577	    -14.79763718	     36.22853577	     79.52031416	     43.01321004	      0.00000000	      0.00000000	     36.22853577	    -14.79763718	     36.22853577	     79.52031416	     43.01321004	      0.00000000	      0.00000000
      3.55500000	     -9.19420514	     -4.94179451	     89.21978872	      0.21926573	      0.89243482	      0.48931436	     34.70339866	    -11.79044052	    -10.83402458	     14.42781191	      0.25181282	     -4.96442403	      2.37814847	      0.00000000	    -16.16791136	      5.78230929	    -19.33941955	     15.46818618	      0.26997078	     -3.12999520	     10.72373760	      0.00000000	      0.00000000	      0.00000000	      0.00000000	     36.23216830	    -14.79777509	     36.23216830	     79.51425820	     43.02057967	      0.00000000	      0.00000000	     36.23216830	    -14.79777509	     36.23216830	     79.51425820	     43.02057967	      0.00000000	      0.00000000
      3.56000000	     -8.73486341	     -4.69683550	     89.19868225	      0.22042725	      0.89295715	      0.48138495	     34.38443888	    -11.33025258	    -10.74410336	     15.27431594	      0.26658710	     -5.39258802	      1.74548885	      0.00000000	    -16.40986492	      5.09470428	    -19.51886204	     16.27177043	      0.28399597	     -4.27184936	      9.98510854	      0.00000000	      0.00000000	      0.00000000	      0.00000000	     36.23649446	    -14.79793929	     36.23649446	     79.50705282	     43.02932555	      0.00000000	      0.00000000	     36.23649446	    -14.79793929	     36.23649446	     79.50705282	     43.02932555	      0.00000000	      0.00000000
      3.56500000	     -8.25671609	     -4.42291639	     89.15494106	      0.22160863	      0.89362501	      0.47345984	     34.02645586	    -10.84114093	    -10.61820269	     16.11807759	      0.28131352	     -5.78281865	      1.13096652	      0.00000000	    -16.62852668	      4.38042593	    -19.76956778	     17.15389575	      0.29939196	     -5.53073563	      9.19938191	      0.00000000	      0.00000000	      0.00000000	      0.00000000	     36.24008979	    -14.79807570	     36.24008979	     79.50107116	     43.03656687	      0.00000000	      0.00000000	     36.24008979	    -14.79807570	     36.24008979	     79.50107116	     43.03656687	      0.00000000	      0.00000000
      3.57000000	     -7.27740243	     -4.17055990	     89.13641922	      0.22297915	      0.89455719	      0.46554823	     33.35191057	     -9.70616484	    -10.32200334	     16.40697732	      0.28635577	     -6.59946987	     -0.24093528	      0.00000000	    -16.63013239	      2.97666490	    -20.50173113	     18.53547920	      0.32350514	     -6.41325638	      8.82967531	      0.00000000	      0.00000000	      0.00000000	      0.00000000	     36.27225942	    -14.79929483	     36.27225942	     79.44778611	     43.10030985	      0.00000000	      0.00000000	     36.27225942	    -14.79929483	     36.27225942	     79.44778611	     43.10030985	      0.00000000	      0.00000000
      3.57500000	     -6.81185421	     -3.82139213	     89.05923233	      0.22426452	      0.89546092	      0.45763748	     32.92219304	     -9.22140613	    -10.19035581	     17.29961272	      0.30193520	     -6.75450190	     -0.74394603	      0.00000000	    -16.83770700	      2.25650152	    -20.77145801	     19.54261318	      0.34108294	     -7.89753181	      7.89024802	      0.00000000	      0.00000000	      0.00000000	      0.00000000	     36.27591339	    -14.79943311	     36.27591339	     79.44176253	     43.10743283	      0.00000000	      0.00000000	     36.27591339	    -14.79943311	     36.27591339	     79.44176253	     43.10743283	      0.00000000	      0.00000000
